<svg width="182" height="32" viewBox="0 0 182 32" fill="none" xmlns="http://www.w3.org/2000/svg">
<g clip-path="url(#clip0_0_249)">
<ellipse opacity="0.48" cx="43" cy="17.8731" rx="6" ry="5.87314" fill="#B556CA"/>
<ellipse cx="26" cy="17.8731" rx="6" ry="5.87314" fill="#6C56CA" fill-opacity="0.48"/>
<ellipse cx="9" cy="17.8731" rx="6" ry="5.87314" fill="#E0F2FD"/>
<path d="M66.872 26H69.08L61.16 17.6L69.008 9.22398H66.872L59.6 17.072V9.22398H57.92V26H59.6V18.248L66.872 26ZM70.7926 19.424C70.7926 23.528 73.4566 26.192 77.0326 26.192C79.6486 26.192 81.4726 24.776 82.2406 23.096V26H83.9206V12.896H82.2406V15.776C81.4966 14.12 79.6966 12.704 77.0566 12.704C73.4566 12.704 70.7926 15.32 70.7926 19.424ZM82.2406 19.448C82.2406 22.712 80.0566 24.728 77.3686 24.728C74.6086 24.728 72.4966 22.736 72.4966 19.424C72.4966 16.088 74.6086 14.168 77.3686 14.168C80.0566 14.168 82.2406 16.184 82.2406 19.448ZM89.4359 18.68C89.4359 15.392 91.2839 14.408 93.4679 14.408H93.9239V12.656C91.6679 12.656 90.1559 13.616 89.4359 15.224V12.896H87.7559V26H89.4359V18.68ZM96.4513 26H98.1313V8.23998H96.4513V26ZM101.168 19.424C101.168 23.528 103.832 26.192 107.408 26.192C110.024 26.192 111.848 24.776 112.616 23.096V26H114.296V12.896H112.616V15.776C111.872 14.12 110.072 12.704 107.432 12.704C103.832 12.704 101.168 15.32 101.168 19.424ZM112.616 19.448C112.616 22.712 110.432 24.728 107.744 24.728C104.984 24.728 102.872 22.736 102.872 19.424C102.872 16.088 104.984 14.168 107.744 14.168C110.432 14.168 112.616 16.184 112.616 19.448ZM128.619 21.584C128.619 15.344 119.403 18.32 119.403 13.472C119.403 11.528 121.035 10.448 123.003 10.472C125.331 10.496 126.459 11.936 126.651 13.112H128.475C128.187 10.808 126.267 9.03198 123.075 9.03198C119.835 9.03198 117.699 10.928 117.699 13.52C117.699 19.832 126.915 16.712 126.915 21.656C126.915 23.384 125.547 24.752 123.219 24.752C120.507 24.752 119.475 23.072 119.331 21.68H117.555C117.651 24.248 119.859 26.168 123.219 26.168C126.771 26.168 128.619 23.864 128.619 21.584ZM143.217 12.896H141.537V20.024C141.537 23.216 139.833 24.752 137.385 24.752C134.985 24.752 133.401 23.264 133.401 20.36V12.896H131.745V20.552C131.745 24.392 134.097 26.216 137.073 26.216C139.017 26.216 140.745 25.352 141.537 23.696V26H143.217V12.896ZM148.733 18.68C148.733 15.392 150.581 14.408 152.765 14.408H153.221V12.656C150.965 12.656 149.453 13.616 148.733 15.224V12.896H147.053V26H148.733V18.68ZM154.98 19.424C154.98 23.528 157.644 26.192 161.22 26.192C163.836 26.192 165.66 24.776 166.428 23.096V26H168.108V12.896H166.428V15.776C165.684 14.12 163.884 12.704 161.244 12.704C157.644 12.704 154.98 15.32 154.98 19.424ZM166.428 19.448C166.428 22.712 164.244 24.728 161.556 24.728C158.796 24.728 156.684 22.736 156.684 19.424C156.684 16.088 158.796 14.168 161.556 14.168C164.244 14.168 166.428 16.184 166.428 19.448Z" fill="#27292D"/>
<g filter="url(#filter0_f_0_249)">
<circle cx="639.5" cy="381.5" r="381.5" fill="#EDE1F7"/>
</g>
</g>
<defs>
<filter id="filter0_f_0_249" x="58" y="-200" width="1163" height="1163" filterUnits="userSpaceOnUse" color-interpolation-filters="sRGB">
<feFlood flood-opacity="0" result="BackgroundImageFix"/>
<feBlend mode="normal" in="SourceGraphic" in2="BackgroundImageFix" result="shape"/>
<feGaussianBlur stdDeviation="100" result="effect1_foregroundBlur_0_249"/>
</filter>
<clipPath id="clip0_0_249">
<rect width="182" height="31.3234" fill="white" transform="translate(0 0.477684)"/>
</clipPath>
</defs>
</svg>
